arm28_optimize_states
version=1
nRows=19
nColumns=21
inDegrees=yes

# SIMM Motion File Header:
name arm28_optimize_states
datacolumns 21
datarows 19
otherdata 1
range 0.80670136 0.81006661
endheader
time	r_shoulder_elev	r_elbow_flex	r_shoulder_elev_u	r_elbow_flex_u	TRIlong.activation	TRIlong.fiber_length	TRIlat.activation	TRIlat.fiber_length	TRImed.activation	TRImed.fiber_length	BIClong.activation	BIClong.fiber_length	BICshort.activation	BICshort.fiber_length	BRA.activation	BRA.fiber_length	DeltAnt.activation	DeltAnt.fiber_length	DeltPost.activation	DeltPost.fiber_length
      0.80670136	     21.76041975	     48.99763353	    196.58439364	    -58.85338619	      0.01261296	      0.16915174	      0.01304175	      0.09008377	      0.01308936	      0.08504613	      0.07918579	      0.11964780	      0.07287869	      0.12826415	      0.05959750	      0.08166875	      0.06688045	      0.14848767	      0.01199939	      0.12521616
      0.80691299	     21.80200905	     48.98518162	    196.46115065	    -58.82593719	      0.01262698	      0.16917186	      0.01304694	      0.09007885	      0.01309466	      0.08504124	      0.07915180	      0.11964314	      0.07281950	      0.12828294	      0.05954952	      0.08167197	      0.06685137	      0.14846060	      0.01200395	      0.12524162
      0.80709266	     21.83729938	     48.97461411	    196.35476630	    -58.80020858	      0.01263889	      0.16918894	      0.01305135	      0.09007469	      0.01309916	      0.08503708	      0.07912276	      0.11963919	      0.07276934	      0.12829892	      0.05950887	      0.08167471	      0.06682654	      0.14843763	      0.01200794	      0.12526511
      0.80727234	     21.87257062	     48.96405112	    196.24936042	    -58.77677735	      0.01265079	      0.16920600	      0.01305576	      0.09007052	      0.01310366	      0.08503294	      0.07909355	      0.11963524	      0.07271927	      0.12831490	      0.05946829	      0.08167744	      0.06680158	      0.14841467	      0.01201202	      0.12528627
      0.80745202	     21.90782281	     48.95349249	    196.14216512	    -58.75079477	      0.01266270	      0.16922304	      0.01306017	      0.09006635	      0.01310816	      0.08502879	      0.07906418	      0.11963131	      0.07266929	      0.12833089	      0.05942779	      0.08168018	      0.06677649	      0.14839172	      0.01201620	      0.12530925
      0.80763170	     21.94305573	     48.94293848	    196.03541324	    -58.72617208	      0.01267461	      0.16924008	      0.01306457	      0.09006219	      0.01311267	      0.08502464	      0.07903464	      0.11962738	      0.07261939	      0.12834689	      0.05938736	      0.08168291	      0.06675127	      0.14836878	      0.01202046	      0.12533075
      0.80781138	     21.97826939	     48.93238898	    195.92732084	    -58.69978360	      0.01268652	      0.16925710	      0.01306898	      0.09005802	      0.01311717	      0.08502049	      0.07900495	      0.11962345	      0.07256959	      0.12836291	      0.05934701	      0.08168564	      0.06672593	      0.14834585	      0.01202482	      0.12535344
      0.80803540	     22.02214622	     48.91924261	    195.79300078	    -58.66848493	      0.01270138	      0.16927830	      0.01307448	      0.09005283	      0.01312278	      0.08501533	      0.07896769	      0.11961857	      0.07250761	      0.12838289	      0.05929680	      0.08168904	      0.06669414	      0.14831728	      0.01203037	      0.12538013
      0.80820448	     22.05524313	     48.90932483	    195.68982399	    -58.64231391	      0.01271259	      0.16929429	      0.01307863	      0.09004892	      0.01312702	      0.08501143	      0.07893941	      0.11961490	      0.07246093	      0.12839798	      0.05925899	      0.08169160	      0.06667002	      0.14829573	      0.01203465	      0.12540212
      0.80837357	     22.08832261	     48.89941139	    195.58731596	    -58.61783061	      0.01272380	      0.16931027	      0.01308278	      0.09004500	      0.01313126	      0.08500753	      0.07891098	      0.11961123	      0.07241432	      0.12841308	      0.05922124	      0.08169417	      0.06664578	      0.14827418	      0.01203899	      0.12542209
      0.80854265	     22.12138466	     48.88950222	    195.48348071	    -58.59153644	      0.01273501	      0.16932623	      0.01308693	      0.09004109	      0.01313550	      0.08500363	      0.07888241	      0.11960756	      0.07236779	      0.12842819	      0.05918356	      0.08169673	      0.06662144	      0.14825265	      0.01204341	      0.12544318
      0.80878350	     22.16844742	     48.87539543	    195.33563802	    -58.55507612	      0.01275098	      0.16934895	      0.01309284	      0.09003552	      0.01314154	      0.08499809	      0.07884146	      0.11960236	      0.07230164	      0.12844972	      0.05912999	      0.08170037	      0.06658656	      0.14822198	      0.01204981	      0.12547203
      0.80895879	     22.20267841	     48.86513372	    195.22647996	    -58.52647135	      0.01276261	      0.16936547	      0.01309714	      0.09003146	      0.01314593	      0.08499405	      0.07881149	      0.11959857	      0.07225359	      0.12846541	      0.05909109	      0.08170302	      0.06656103	      0.14819968	      0.01205454	      0.12549456
      0.80913408	     22.23689028	     48.85487694	    195.11806490	    -58.49972276	      0.01277424	      0.16938198	      0.01310144	      0.09002741	      0.01315033	      0.08499002	      0.07878135	      0.11959480	      0.07220563	      0.12848110	      0.05905226	      0.08170567	      0.06653538	      0.14817739	      0.01205935	      0.12551515
      0.80930937	     22.27108305	     48.84462497	    195.00826426	    -58.47109805	      0.01278587	      0.16939848	      0.01310574	      0.09002336	      0.01315472	      0.08498598	      0.07875107	      0.11959103	      0.07215775	      0.12849681	      0.05901350	      0.08170832	      0.06650962	      0.14815511	      0.01206421	      0.12553700
      0.80953818	     22.31568655	     48.83125042	    194.86520808	    -58.43503726	      0.01280105	      0.16941999	      0.01311136	      0.09001807	      0.01316046	      0.08498072	      0.07871132	      0.11958612	      0.07209537	      0.12851732	      0.05896301	      0.08171178	      0.06647580	      0.14812604	      0.01207066	      0.12556414
      0.80971432	     22.35000105	     48.82096004	    194.75340293	    -58.40497766	      0.01281273	      0.16943654	      0.01311568	      0.09001400	      0.01316487	      0.08497667	      0.07868054	      0.11958235	      0.07204744	      0.12853312	      0.05892422	      0.08171443	      0.06644963	      0.14810368	      0.01207568	      0.12558671
      0.80989047	     22.38429588	     48.81067486	    194.64239192	    -58.37686920	      0.01282442	      0.16945307	      0.01312001	      0.09000994	      0.01316929	      0.08497262	      0.07864961	      0.11957858	      0.07199960	      0.12854893	      0.05888550	      0.08171709	      0.06642334	      0.14808133	      0.01208077	      0.12560726
      0.81006661	     22.41857106	     48.80039475	    194.52994505	    -58.34680025	      0.01283611	      0.16946959	      0.01312433	      0.09000587	      0.01317371	      0.08496857	      0.07861852	      0.11957482	      0.07195184	      0.12856475	      0.05884686	      0.08171974	      0.06639693	      0.14805899	      0.01208591	      0.12562910
